<mxfile host="app.diagrams.net" modified="2021-12-27T01:58:29.293Z" agent="5.0 (Windows NT 10.0; WOW64) AppleWebKit/537.36 (KHTML, like Gecko) Chrome/75.0.3770.100 Safari/537.36" etag="Z7yTKdtsLb1LNbPPfcf5" version="16.0.3" type="github" pages="2">
  <diagram id="TDiGAL2X2Zq-7PlaV9LO" name="Page-1">
    <mxGraphModel dx="1038" dy="2874" grid="1" gridSize="10" guides="1" tooltips="1" connect="1" arrows="1" fold="1" page="1" pageScale="1" pageWidth="827" pageHeight="1169" math="0" shadow="0">
      <root>
        <mxCell id="0" />
        <mxCell id="1" parent="0" />
        <mxCell id="9E3KLxwtJvIrnutbp77t-42" value="&lt;span style=&quot;&quot;&gt;int&amp;nbsp; a ,b =1&lt;/span&gt;&lt;br style=&quot;&quot;&gt;&lt;span style=&quot;&quot;&gt;c=a+b&lt;/span&gt;&lt;br style=&quot;&quot;&gt;&lt;div style=&quot;&quot;&gt;&lt;span&gt;retun c&lt;/span&gt;&lt;/div&gt;" style="rounded=0;whiteSpace=wrap;html=1;align=left;verticalAlign=top;fillColor=#f8cecc;strokeColor=#b85450;" parent="1" vertex="1">
          <mxGeometry x="1169" y="-1120" width="144" height="330" as="geometry" />
        </mxCell>
        <mxCell id="9E3KLxwtJvIrnutbp77t-6" value="JAVA内存区" style="rounded=0;whiteSpace=wrap;html=1;align=left;verticalAlign=top;" parent="1" vertex="1">
          <mxGeometry x="10" y="-1140" width="790" height="470" as="geometry" />
        </mxCell>
        <mxCell id="9E3KLxwtJvIrnutbp77t-7" value="线程共享区" style="rounded=0;whiteSpace=wrap;html=1;align=left;verticalAlign=top;fillColor=#e1d5e7;strokeColor=#9673a6;" parent="1" vertex="1">
          <mxGeometry x="20" y="-1110" width="380" height="420" as="geometry" />
        </mxCell>
        <mxCell id="9E3KLxwtJvIrnutbp77t-8" value="线程私有区" style="rounded=0;whiteSpace=wrap;html=1;align=left;verticalAlign=top;fillColor=#e1d5e7;strokeColor=#9673a6;" parent="1" vertex="1">
          <mxGeometry x="414" y="-1110" width="380" height="420" as="geometry" />
        </mxCell>
        <mxCell id="9E3KLxwtJvIrnutbp77t-48" value="" style="edgeStyle=orthogonalEdgeStyle;rounded=0;orthogonalLoop=1;jettySize=auto;html=1;" parent="1" source="9E3KLxwtJvIrnutbp77t-9" target="9E3KLxwtJvIrnutbp77t-47" edge="1">
          <mxGeometry relative="1" as="geometry" />
        </mxCell>
        <mxCell id="9E3KLxwtJvIrnutbp77t-9" value="方法区（Method Area）:&lt;br&gt;用于存储已被虚拟机加载的类信息（即加载类时所需的信息，包括版本、field、方法、接口等信息）、final常量、静态变量、编译器即时编译代码等。内存不足时抛出OutofMemoryError:PermGen Space异常" style="rounded=0;whiteSpace=wrap;html=1;align=left;verticalAlign=top;fillColor=#f5f5f5;fontColor=#333333;strokeColor=#666666;" parent="1" vertex="1">
          <mxGeometry x="30" y="-1080" width="350" height="150" as="geometry" />
        </mxCell>
        <mxCell id="9E3KLxwtJvIrnutbp77t-10" value="运行时常量池（Runtime Constant Pool）:&lt;br&gt;用于存储编辑器就生成的字面常量、符号引用、翻译出来的直接引用" style="rounded=0;whiteSpace=wrap;html=1;align=left;verticalAlign=top;" parent="1" vertex="1">
          <mxGeometry x="35" y="-1000" width="275" height="60" as="geometry" />
        </mxCell>
        <mxCell id="9E3KLxwtJvIrnutbp77t-11" value="堆（Heap）&lt;br&gt;堆区的存在是为了存储对象实例。原则上讲，所有对象都在堆区分配内存（不过现在技术里，也不是绝对的，线程里的临时对象是分配到栈上的）。&lt;br&gt;如果执行垃圾回收后，仍没有足够的内存分配，也不能再扩展，会抛出OutofMemoryError:java heap error异常" style="rounded=0;whiteSpace=wrap;html=1;align=left;verticalAlign=top;fillColor=#dae8fc;strokeColor=#6c8ebf;" parent="1" vertex="1">
          <mxGeometry x="31" y="-910" width="177" height="180" as="geometry" />
        </mxCell>
        <mxCell id="9E3KLxwtJvIrnutbp77t-12" value="直接内存（Diract Memory）&lt;br&gt;&lt;div&gt;直接内存并不是虚拟机运行时数据区的一部分，也不是Java 虚拟机规范中农定义的内存区域。在JDK1.4 中新加入了NIO(New Input/Output)类，引入了一种基于通道(Channel)与缓冲区（Buffer）的I/O 方式&lt;/div&gt;" style="rounded=0;whiteSpace=wrap;html=1;align=left;verticalAlign=top;" parent="1" vertex="1">
          <mxGeometry x="224" y="-910" width="156" height="180" as="geometry" />
        </mxCell>
        <mxCell id="9E3KLxwtJvIrnutbp77t-13" value="本地方法栈（Native Method Stack）&lt;br&gt;&lt;div&gt;本地方法栈和虚拟机栈所发挥的作用是非常相似的，它们之间的区别不过是虚拟机栈是非虚拟机执行Java方法（也就是字节码）服务，而本地方法栈则是为虚拟机执行Native方法服务的。在虚拟机规范中对本地方法栈中方法使用的语言、使用方式与数据结构并没有强制规定，因此具体的虚拟机可以自由实现它。甚至有的虚拟机直接将本地方法栈和虚拟机栈合二为一。与虚拟机栈一样，本地方法栈区域会抛出StackOverflowError异常和OutOfMemoryError异常。&lt;/div&gt;" style="rounded=0;whiteSpace=wrap;html=1;align=left;verticalAlign=top;" parent="1" vertex="1">
          <mxGeometry x="420" y="-1070" width="180" height="280" as="geometry" />
        </mxCell>
        <mxCell id="9E3KLxwtJvIrnutbp77t-14" value="JAVA虚拟机栈（JVM Stack）&lt;br&gt;一个线程的每个方法执行时，都会创建一个栈帧（Stack Frame），当方法被调用时，栈帧之JVM栈中入栈，当方法执行完成时，栈帧出栈。虚拟机栈中定义了两种异常：如果线程中调用的栈的深度大于虚拟机允许的最大深度，这抛出StackOverFlowError（栈溢出）不过大多数JAVA虚拟机都允许动态扩展虚拟机栈的大小（有一笑部分是固定长度），所以线程可以一直申请栈，直到内存不足，此时会抛出OutOfMemoeryError（内存溢出）。" style="rounded=0;whiteSpace=wrap;html=1;align=left;verticalAlign=top;" parent="1" vertex="1">
          <mxGeometry x="610" y="-1070" width="180" height="280" as="geometry" />
        </mxCell>
        <mxCell id="9E3KLxwtJvIrnutbp77t-15" value="" style="endArrow=none;html=1;rounded=0;exitX=1;exitY=0.5;exitDx=0;exitDy=0;" parent="1" source="9E3KLxwtJvIrnutbp77t-14" edge="1">
          <mxGeometry width="50" height="50" relative="1" as="geometry">
            <mxPoint x="790" y="-880" as="sourcePoint" />
            <mxPoint x="840" y="-930" as="targetPoint" />
          </mxGeometry>
        </mxCell>
        <mxCell id="9E3KLxwtJvIrnutbp77t-16" value="" style="rounded=0;whiteSpace=wrap;html=1;fillColor=#dae8fc;strokeColor=#6c8ebf;" parent="1" vertex="1">
          <mxGeometry x="840" y="-1090" width="120" height="320" as="geometry" />
        </mxCell>
        <mxCell id="9E3KLxwtJvIrnutbp77t-19" value="栈帧" style="rounded=0;whiteSpace=wrap;html=1;fillColor=#d5e8d4;strokeColor=#82b366;" parent="1" vertex="1">
          <mxGeometry x="850" y="-1035" width="100" height="60" as="geometry" />
        </mxCell>
        <mxCell id="9E3KLxwtJvIrnutbp77t-22" style="edgeStyle=orthogonalEdgeStyle;rounded=0;orthogonalLoop=1;jettySize=auto;html=1;exitX=1;exitY=0.5;exitDx=0;exitDy=0;" parent="1" source="9E3KLxwtJvIrnutbp77t-20" edge="1">
          <mxGeometry relative="1" as="geometry">
            <mxPoint x="990" y="-930" as="targetPoint" />
          </mxGeometry>
        </mxCell>
        <mxCell id="9E3KLxwtJvIrnutbp77t-20" value="栈帧" style="rounded=0;whiteSpace=wrap;html=1;fillColor=#d5e8d4;strokeColor=#82b366;" parent="1" vertex="1">
          <mxGeometry x="850" y="-962.5" width="100" height="65" as="geometry" />
        </mxCell>
        <mxCell id="9E3KLxwtJvIrnutbp77t-21" value="栈帧" style="rounded=0;whiteSpace=wrap;html=1;fillColor=#d5e8d4;strokeColor=#82b366;" parent="1" vertex="1">
          <mxGeometry x="850" y="-870" width="100" height="60" as="geometry" />
        </mxCell>
        <mxCell id="9E3KLxwtJvIrnutbp77t-23" value="" style="rounded=0;whiteSpace=wrap;html=1;fillColor=#d5e8d4;strokeColor=#82b366;" parent="1" vertex="1">
          <mxGeometry x="990" y="-1090" width="120" height="320" as="geometry" />
        </mxCell>
        <mxCell id="9E3KLxwtJvIrnutbp77t-32" value="" style="edgeStyle=orthogonalEdgeStyle;rounded=0;orthogonalLoop=1;jettySize=auto;html=1;" parent="1" source="9E3KLxwtJvIrnutbp77t-24" target="9E3KLxwtJvIrnutbp77t-31" edge="1">
          <mxGeometry relative="1" as="geometry" />
        </mxCell>
        <mxCell id="9E3KLxwtJvIrnutbp77t-24" value="局部变量表" style="rounded=0;whiteSpace=wrap;html=1;" parent="1" vertex="1">
          <mxGeometry x="1000" y="-1060" width="100" height="40" as="geometry" />
        </mxCell>
        <mxCell id="9E3KLxwtJvIrnutbp77t-39" value="" style="edgeStyle=orthogonalEdgeStyle;rounded=0;orthogonalLoop=1;jettySize=auto;html=1;" parent="1" source="9E3KLxwtJvIrnutbp77t-25" target="9E3KLxwtJvIrnutbp77t-38" edge="1">
          <mxGeometry relative="1" as="geometry" />
        </mxCell>
        <mxCell id="9E3KLxwtJvIrnutbp77t-25" value="操作数栈" style="rounded=0;whiteSpace=wrap;html=1;" parent="1" vertex="1">
          <mxGeometry x="1000" y="-1010" width="100" height="40" as="geometry" />
        </mxCell>
        <mxCell id="9E3KLxwtJvIrnutbp77t-45" value="" style="edgeStyle=orthogonalEdgeStyle;rounded=0;orthogonalLoop=1;jettySize=auto;html=1;" parent="1" source="9E3KLxwtJvIrnutbp77t-26" target="9E3KLxwtJvIrnutbp77t-44" edge="1">
          <mxGeometry relative="1" as="geometry" />
        </mxCell>
        <mxCell id="9E3KLxwtJvIrnutbp77t-26" value="动态链接" style="rounded=0;whiteSpace=wrap;html=1;" parent="1" vertex="1">
          <mxGeometry x="1000" y="-962.5" width="100" height="40" as="geometry" />
        </mxCell>
        <mxCell id="9E3KLxwtJvIrnutbp77t-41" value="" style="edgeStyle=orthogonalEdgeStyle;rounded=0;orthogonalLoop=1;jettySize=auto;html=1;" parent="1" source="9E3KLxwtJvIrnutbp77t-27" target="9E3KLxwtJvIrnutbp77t-40" edge="1">
          <mxGeometry relative="1" as="geometry" />
        </mxCell>
        <mxCell id="9E3KLxwtJvIrnutbp77t-27" value="返回信息" style="rounded=0;whiteSpace=wrap;html=1;" parent="1" vertex="1">
          <mxGeometry x="1000" y="-910" width="100" height="40" as="geometry" />
        </mxCell>
        <mxCell id="9E3KLxwtJvIrnutbp77t-28" value="附加信息" style="rounded=0;whiteSpace=wrap;html=1;" parent="1" vertex="1">
          <mxGeometry x="1000" y="-860" width="100" height="40" as="geometry" />
        </mxCell>
        <mxCell id="9E3KLxwtJvIrnutbp77t-31" value="a,b,c" style="rounded=0;whiteSpace=wrap;html=1;" parent="1" vertex="1">
          <mxGeometry x="1180" y="-1060" width="100" height="40" as="geometry" />
        </mxCell>
        <mxCell id="9E3KLxwtJvIrnutbp77t-38" value="+" style="rounded=0;whiteSpace=wrap;html=1;" parent="1" vertex="1">
          <mxGeometry x="1180" y="-1010" width="100" height="40" as="geometry" />
        </mxCell>
        <mxCell id="9E3KLxwtJvIrnutbp77t-40" value="return，Error返回" style="rounded=0;whiteSpace=wrap;html=1;" parent="1" vertex="1">
          <mxGeometry x="1180" y="-910" width="100" height="40" as="geometry" />
        </mxCell>
        <mxCell id="9E3KLxwtJvIrnutbp77t-44" value="&lt;ul style=&quot;margin: 0px 0px 0px 30px ; padding: 0px ; color: rgb(51 , 51 , 51) ; font-family: &amp;#34;pingfang sc&amp;#34; , &amp;#34;microsoft yahei&amp;#34; , &amp;#34;helvetica neue&amp;#34; , &amp;#34;helvetica&amp;#34; , &amp;#34;arial&amp;#34; , sans-serif ; font-size: 13.3333px ; background-color: rgb(255 , 255 , 255)&quot;&gt;&lt;li id=&quot;35-动态链接或指向运行时常量池的方法引用&quot; style=&quot;margin: 0px ; padding: 0px ; list-style: disc&quot;&gt;&lt;p style=&quot;margin: 10px auto ; padding: 0px&quot;&gt;动态链接主要就是&lt;strong style=&quot;margin: 0px ; padding: 0px&quot;&gt;指向运行时常量池的方法引用（静态方法区中）&lt;/strong&gt;&lt;/p&gt;&lt;/li&gt;&lt;li id=&quot;35-动态链接或指向运行时常量池的方法引用&quot; style=&quot;margin: 0px ; padding: 0px ; list-style: disc&quot;&gt;&lt;p style=&quot;margin: 10px auto ; padding: 0px&quot;&gt;每一个栈帧内存都包含一个指向运行时常量池中该栈帧所属方法的引用，包含这个引用的目的就是为了支持当前方法的代码能够实现动态链接(Dynamic Linking)。比如invokedynamic 指令&lt;/p&gt;&lt;/li&gt;&lt;li style=&quot;margin: 0px ; padding: 0px ; list-style: disc&quot;&gt;在Java源文件被编译到字节码文件中时，所有的变量和方法引用都作为符号引用(Symbolic Reference )保存在class文件的常量池里。比如，描述一个方法调用其他方法时，就是通过常量池中指向方法的符号引用来表示的，那么动态链接的作用就是为了将这些符号引用转换为调用方法的直接引用&lt;/li&gt;&lt;/ul&gt;" style="whiteSpace=wrap;html=1;rounded=0;fillColor=#fff2cc;strokeColor=#d6b656;" parent="1" vertex="1">
          <mxGeometry x="1330" y="-1077.5" width="310" height="270" as="geometry" />
        </mxCell>
        <mxCell id="9E3KLxwtJvIrnutbp77t-62" value="" style="group" parent="1" vertex="1" connectable="0">
          <mxGeometry x="110" y="-1450" width="190" height="290" as="geometry" />
        </mxCell>
        <mxCell id="9E3KLxwtJvIrnutbp77t-47" value="" style="rounded=0;whiteSpace=wrap;html=1;align=left;verticalAlign=top;fillColor=#f5f5f5;fontColor=#333333;strokeColor=#666666;" parent="9E3KLxwtJvIrnutbp77t-62" vertex="1">
          <mxGeometry width="190" height="290" as="geometry" />
        </mxCell>
        <mxCell id="9E3KLxwtJvIrnutbp77t-49" value="类型信息" style="rounded=0;whiteSpace=wrap;html=1;" parent="9E3KLxwtJvIrnutbp77t-62" vertex="1">
          <mxGeometry x="37.75" y="11" width="115" height="30" as="geometry" />
        </mxCell>
        <mxCell id="9E3KLxwtJvIrnutbp77t-50" value="域信息" style="rounded=0;whiteSpace=wrap;html=1;" parent="9E3KLxwtJvIrnutbp77t-62" vertex="1">
          <mxGeometry x="37.25" y="51" width="114" height="30" as="geometry" />
        </mxCell>
        <mxCell id="9E3KLxwtJvIrnutbp77t-51" value="方法信息" style="rounded=0;whiteSpace=wrap;html=1;" parent="9E3KLxwtJvIrnutbp77t-62" vertex="1">
          <mxGeometry x="37.75" y="91" width="114" height="30" as="geometry" />
        </mxCell>
        <mxCell id="9E3KLxwtJvIrnutbp77t-55" value="运行时常量池" style="rounded=0;whiteSpace=wrap;html=1;" parent="9E3KLxwtJvIrnutbp77t-62" vertex="1">
          <mxGeometry x="37.75" y="140" width="112.25" height="20" as="geometry" />
        </mxCell>
        <mxCell id="9E3KLxwtJvIrnutbp77t-56" value="string constants" style="rounded=0;whiteSpace=wrap;html=1;" parent="9E3KLxwtJvIrnutbp77t-62" vertex="1">
          <mxGeometry x="37.75" y="160" width="112.25" height="20" as="geometry" />
        </mxCell>
        <mxCell id="9E3KLxwtJvIrnutbp77t-57" value="numberic constants" style="rounded=0;whiteSpace=wrap;html=1;" parent="9E3KLxwtJvIrnutbp77t-62" vertex="1">
          <mxGeometry x="37.75" y="180" width="112.25" height="20" as="geometry" />
        </mxCell>
        <mxCell id="9E3KLxwtJvIrnutbp77t-58" value="class references" style="rounded=0;whiteSpace=wrap;html=1;" parent="9E3KLxwtJvIrnutbp77t-62" vertex="1">
          <mxGeometry x="37.75" y="200" width="112.25" height="20" as="geometry" />
        </mxCell>
        <mxCell id="9E3KLxwtJvIrnutbp77t-59" value="fields references" style="rounded=0;whiteSpace=wrap;html=1;fillColor=#e1d5e7;strokeColor=#9673a6;" parent="9E3KLxwtJvIrnutbp77t-62" vertex="1">
          <mxGeometry x="37.75" y="220" width="112.25" height="20" as="geometry" />
        </mxCell>
        <mxCell id="9E3KLxwtJvIrnutbp77t-60" value="method references" style="rounded=0;whiteSpace=wrap;html=1;" parent="9E3KLxwtJvIrnutbp77t-62" vertex="1">
          <mxGeometry x="37.75" y="240" width="112.25" height="20" as="geometry" />
        </mxCell>
        <mxCell id="9E3KLxwtJvIrnutbp77t-61" style="edgeStyle=orthogonalEdgeStyle;rounded=0;orthogonalLoop=1;jettySize=auto;html=1;exitX=0.5;exitY=0;exitDx=0;exitDy=0;entryX=1;entryY=0.5;entryDx=0;entryDy=0;" parent="1" source="9E3KLxwtJvIrnutbp77t-44" target="9E3KLxwtJvIrnutbp77t-59" edge="1">
          <mxGeometry relative="1" as="geometry" />
        </mxCell>
        <mxCell id="9E3KLxwtJvIrnutbp77t-63" value="程序计数器（Program Counter Register）&lt;br&gt;由于JAVA是多线程的，记载CPU执行到那一条指令（通过字节码行号），已保证下次切换到该栈上的一致性" style="rounded=0;whiteSpace=wrap;html=1;align=left;verticalAlign=top;" parent="1" vertex="1">
          <mxGeometry x="420" y="-760" width="360" height="60" as="geometry" />
        </mxCell>
      </root>
    </mxGraphModel>
  </diagram>
  <diagram id="burU_bkRqCt5qxTcppua" name="数据中心演化史">
    <mxGraphModel dx="1038" dy="536" grid="1" gridSize="10" guides="1" tooltips="1" connect="1" arrows="1" fold="1" page="1" pageScale="1" pageWidth="827" pageHeight="1169" math="0" shadow="0">
      <root>
        <mxCell id="TquE0bGBpItUM3xQhQY0-0" />
        <mxCell id="TquE0bGBpItUM3xQhQY0-1" parent="TquE0bGBpItUM3xQhQY0-0" />
        <mxCell id="TquE0bGBpItUM3xQhQY0-48" value="数据中心演化" style="swimlane;childLayout=stackLayout;resizeParent=1;resizeParentMax=0;startSize=20;" vertex="1" parent="TquE0bGBpItUM3xQhQY0-1">
          <mxGeometry x="80" y="270" width="600" height="360" as="geometry" />
        </mxCell>
        <mxCell id="TquE0bGBpItUM3xQhQY0-49" value="" style="swimlane;startSize=20;" vertex="1" parent="TquE0bGBpItUM3xQhQY0-48">
          <mxGeometry y="20" width="120" height="340" as="geometry" />
        </mxCell>
        <mxCell id="TquE0bGBpItUM3xQhQY0-54" value="数据中心提供" style="whiteSpace=wrap;html=1;" vertex="1" parent="TquE0bGBpItUM3xQhQY0-49">
          <mxGeometry y="21" width="120" height="53" as="geometry" />
        </mxCell>
        <mxCell id="TquE0bGBpItUM3xQhQY0-56" value="应用架构" style="whiteSpace=wrap;html=1;" vertex="1" parent="TquE0bGBpItUM3xQhQY0-49">
          <mxGeometry y="74" width="120" height="53" as="geometry" />
        </mxCell>
        <mxCell id="TquE0bGBpItUM3xQhQY0-57" value="自动化" style="whiteSpace=wrap;html=1;" vertex="1" parent="TquE0bGBpItUM3xQhQY0-49">
          <mxGeometry y="127" width="120" height="53" as="geometry" />
        </mxCell>
        <mxCell id="TquE0bGBpItUM3xQhQY0-58" value="服务创建时间" style="whiteSpace=wrap;html=1;" vertex="1" parent="TquE0bGBpItUM3xQhQY0-49">
          <mxGeometry y="180" width="120" height="53" as="geometry" />
        </mxCell>
        <mxCell id="TquE0bGBpItUM3xQhQY0-59" value="服务生命周期" style="whiteSpace=wrap;html=1;" vertex="1" parent="TquE0bGBpItUM3xQhQY0-49">
          <mxGeometry y="233" width="120" height="53" as="geometry" />
        </mxCell>
        <mxCell id="TquE0bGBpItUM3xQhQY0-60" value="主要产品" style="whiteSpace=wrap;html=1;" vertex="1" parent="TquE0bGBpItUM3xQhQY0-49">
          <mxGeometry y="286" width="120" height="53" as="geometry" />
        </mxCell>
        <mxCell id="TquE0bGBpItUM3xQhQY0-50" value="Gen0 硬件" style="swimlane;startSize=20;" vertex="1" parent="TquE0bGBpItUM3xQhQY0-48">
          <mxGeometry x="120" y="20" width="120" height="340" as="geometry" />
        </mxCell>
        <mxCell id="TquE0bGBpItUM3xQhQY0-61" value="硬件服务器运行单一的服务/应用" style="whiteSpace=wrap;html=1;" vertex="1" parent="TquE0bGBpItUM3xQhQY0-50">
          <mxGeometry y="21" width="120" height="53" as="geometry" />
        </mxCell>
        <mxCell id="TquE0bGBpItUM3xQhQY0-62" value="烟囱" style="whiteSpace=wrap;html=1;" vertex="1" parent="TquE0bGBpItUM3xQhQY0-50">
          <mxGeometry y="74" width="120" height="53" as="geometry" />
        </mxCell>
        <mxCell id="TquE0bGBpItUM3xQhQY0-63" value="无" style="whiteSpace=wrap;html=1;" vertex="1" parent="TquE0bGBpItUM3xQhQY0-50">
          <mxGeometry y="127" width="120" height="53" as="geometry" />
        </mxCell>
        <mxCell id="TquE0bGBpItUM3xQhQY0-64" value="weeks/单" style="whiteSpace=wrap;html=1;" vertex="1" parent="TquE0bGBpItUM3xQhQY0-50">
          <mxGeometry y="180" width="120" height="53" as="geometry" />
        </mxCell>
        <mxCell id="TquE0bGBpItUM3xQhQY0-65" value="年" style="whiteSpace=wrap;html=1;" vertex="1" parent="TquE0bGBpItUM3xQhQY0-50">
          <mxGeometry y="233" width="120" height="53" as="geometry" />
        </mxCell>
        <mxCell id="TquE0bGBpItUM3xQhQY0-66" value="DELL,HP,BIG-IP硬件" style="whiteSpace=wrap;html=1;" vertex="1" parent="TquE0bGBpItUM3xQhQY0-50">
          <mxGeometry y="286" width="120" height="53" as="geometry" />
        </mxCell>
        <mxCell id="TquE0bGBpItUM3xQhQY0-51" value="Gen1 虚拟化" style="swimlane;startSize=20;" vertex="1" parent="TquE0bGBpItUM3xQhQY0-48">
          <mxGeometry x="240" y="20" width="120" height="340" as="geometry" />
        </mxCell>
        <mxCell id="TquE0bGBpItUM3xQhQY0-67" value="硬件服务器运行单一的服务/应用" style="whiteSpace=wrap;html=1;" vertex="1" parent="TquE0bGBpItUM3xQhQY0-51">
          <mxGeometry y="21" width="120" height="53" as="geometry" />
        </mxCell>
        <mxCell id="TquE0bGBpItUM3xQhQY0-68" value="SOA" style="whiteSpace=wrap;html=1;" vertex="1" parent="TquE0bGBpItUM3xQhQY0-51">
          <mxGeometry y="74" width="120" height="53" as="geometry" />
        </mxCell>
        <mxCell id="TquE0bGBpItUM3xQhQY0-69" value="很少" style="whiteSpace=wrap;html=1;" vertex="1" parent="TquE0bGBpItUM3xQhQY0-51">
          <mxGeometry y="127" width="120" height="53" as="geometry" />
        </mxCell>
        <mxCell id="TquE0bGBpItUM3xQhQY0-70" value="days/单" style="whiteSpace=wrap;html=1;" vertex="1" parent="TquE0bGBpItUM3xQhQY0-51">
          <mxGeometry y="180" width="120" height="53" as="geometry" />
        </mxCell>
        <mxCell id="TquE0bGBpItUM3xQhQY0-71" value="年" style="whiteSpace=wrap;html=1;" vertex="1" parent="TquE0bGBpItUM3xQhQY0-51">
          <mxGeometry y="233" width="120" height="53" as="geometry" />
        </mxCell>
        <mxCell id="TquE0bGBpItUM3xQhQY0-72" value="WMWare，Xen，BIG-IP VE" style="whiteSpace=wrap;html=1;" vertex="1" parent="TquE0bGBpItUM3xQhQY0-51">
          <mxGeometry y="286" width="120" height="53" as="geometry" />
        </mxCell>
        <mxCell id="TquE0bGBpItUM3xQhQY0-52" value="Gen2 资源池化" style="swimlane;startSize=20;" vertex="1" parent="TquE0bGBpItUM3xQhQY0-48">
          <mxGeometry x="360" y="20" width="120" height="340" as="geometry" />
        </mxCell>
        <mxCell id="TquE0bGBpItUM3xQhQY0-73" value="虚拟化服务器运行单一的服务/应用" style="whiteSpace=wrap;html=1;" vertex="1" parent="TquE0bGBpItUM3xQhQY0-52">
          <mxGeometry y="21" width="120" height="53" as="geometry" />
        </mxCell>
        <mxCell id="TquE0bGBpItUM3xQhQY0-74" value="服务化" style="whiteSpace=wrap;html=1;" vertex="1" parent="TquE0bGBpItUM3xQhQY0-52">
          <mxGeometry y="74" width="120" height="53" as="geometry" />
        </mxCell>
        <mxCell id="TquE0bGBpItUM3xQhQY0-75" value="混合" style="whiteSpace=wrap;html=1;" vertex="1" parent="TquE0bGBpItUM3xQhQY0-52">
          <mxGeometry y="127" width="120" height="53" as="geometry" />
        </mxCell>
        <mxCell id="TquE0bGBpItUM3xQhQY0-76" value="分钟/自服务+自动扩展" style="whiteSpace=wrap;html=1;" vertex="1" parent="TquE0bGBpItUM3xQhQY0-52">
          <mxGeometry y="180" width="120" height="53" as="geometry" />
        </mxCell>
        <mxCell id="TquE0bGBpItUM3xQhQY0-77" value="月/天" style="whiteSpace=wrap;html=1;" vertex="1" parent="TquE0bGBpItUM3xQhQY0-52">
          <mxGeometry y="233" width="120" height="53" as="geometry" />
        </mxCell>
        <mxCell id="TquE0bGBpItUM3xQhQY0-78" value="AWS,OpenStack,&lt;br&gt;Cisco ACI" style="whiteSpace=wrap;html=1;" vertex="1" parent="TquE0bGBpItUM3xQhQY0-52">
          <mxGeometry y="286" width="120" height="53" as="geometry" />
        </mxCell>
        <mxCell id="TquE0bGBpItUM3xQhQY0-53" value="Gen3 容器化 云化" style="swimlane;startSize=20;" vertex="1" parent="TquE0bGBpItUM3xQhQY0-48">
          <mxGeometry x="480" y="20" width="120" height="340" as="geometry" />
        </mxCell>
        <mxCell id="TquE0bGBpItUM3xQhQY0-79" value="CPU,内存和存储池+Paas框架" style="whiteSpace=wrap;html=1;" vertex="1" parent="TquE0bGBpItUM3xQhQY0-53">
          <mxGeometry y="21" width="120" height="53" as="geometry" />
        </mxCell>
        <mxCell id="TquE0bGBpItUM3xQhQY0-80" value="微服务" style="whiteSpace=wrap;html=1;" vertex="1" parent="TquE0bGBpItUM3xQhQY0-53">
          <mxGeometry y="74" width="120" height="53" as="geometry" />
        </mxCell>
        <mxCell id="TquE0bGBpItUM3xQhQY0-81" value="100%" style="whiteSpace=wrap;html=1;" vertex="1" parent="TquE0bGBpItUM3xQhQY0-53">
          <mxGeometry y="127" width="120" height="53" as="geometry" />
        </mxCell>
        <mxCell id="TquE0bGBpItUM3xQhQY0-82" value="秒" style="whiteSpace=wrap;html=1;" vertex="1" parent="TquE0bGBpItUM3xQhQY0-53">
          <mxGeometry y="180" width="120" height="53" as="geometry" />
        </mxCell>
        <mxCell id="TquE0bGBpItUM3xQhQY0-83" value="秒" style="whiteSpace=wrap;html=1;" vertex="1" parent="TquE0bGBpItUM3xQhQY0-53">
          <mxGeometry y="233" width="120" height="53" as="geometry" />
        </mxCell>
        <mxCell id="TquE0bGBpItUM3xQhQY0-84" value="容器：K8S,DOCKER" style="whiteSpace=wrap;html=1;" vertex="1" parent="TquE0bGBpItUM3xQhQY0-53">
          <mxGeometry y="286" width="120" height="53" as="geometry" />
        </mxCell>
      </root>
    </mxGraphModel>
  </diagram>
</mxfile>
